<!--?xml version="1.0" encoding="utf-8"?-->
<!-- Generator: Adobe Illustrator 19.1.1, SVG Export Plug-In . SVG Version: 6.00 Build 0)  -->
<svg version="1.1" id="_x31_0" xmlns="http://www.w3.org/2000/svg" xmlns:xlink="http://www.w3.org/1999/xlink" x="0px" y="0px" viewBox="0 0 512 512" style="width: 256px; height: 256px; opacity: 1;" xml:space="preserve">
<style type="text/css">
	.st0{fill:#374149;}
</style>
<g>
	<path class="st0" d="M211.275,117.18l9.574-4.528l-1.864-3.945c-5.21-12.981,0.566-28.004,13.367-34.055l4.782-2.266l-2.258-4.773
		c-6.07-12.84-1.11-28.016,11.281-34.801l-4.289-9.086l-0.16-0.351c0,0-0.004,0-0.008,0.004l-0.066-0.149
		c-15.516,8.172-23.289,26.191-18.531,43.008l0.386,1.246l-1.011,0.699c-14.555,10.11-19.906,28.852-13.066,45.055L211.275,117.18z" style="fill: rgb(75, 75, 75);"></path>
	<path class="st0" d="M235.294,101l1.863,3.942l9.695-4.578l-1.378-2.914c-1.293-2.734,0.394-6.286,2.859-7.454l10.629-5.023
		c12.645-5.977,19.426-20.18,16.11-33.786l-0.203-1.086l0.824-0.633c10.692-8.152,14.274-22.883,8.527-35.047
		c-2.945-6.23-7.98-11.027-14.195-13.812c-0.359-0.168-0.683-0.406-1.054-0.559l-0.008,0.024c-0.046-0.024-0.094-0.055-0.141-0.074
		l-3.332,10.066c3.817,1.645,6.852,4.453,8.805,8.145c2.266,4.301,2.653,9.262,1.086,13.965c-1.622,4.855-5.211,8.898-9.848,11.09
		l-4.282,2.027l2.227,4.711c4.5,9.523,0.414,20.934-9.106,25.438L243.81,80.43C236.056,84.098,232.451,93.078,235.294,101z" style="fill: rgb(75, 75, 75);"></path>
	<path class="st0" d="M249.591,192.715c-3.441,1.602-7.046,2.402-10.812,2.402c-8.332,0-16.102-4.164-20.746-10.968L93.634,196.082
		v276.43L172.697,512l176.782-16.82V218.668l-75.294-37.566L249.591,192.715z M168.06,483.851l-51.355-25.675V292.683l51.426,25.711
		v114.618L168.06,483.851z M168.13,289.817l-0.07,18.37l-51.355-25.758v-60.078l51.426,25.794V289.817z M326.329,298.45
		l-130.676,12.586l-12.386,1.176v-61.902l143.062-13.695V298.45z M183.267,487.793V321.278l143.062-13.614v166.45l-131.106,12.55
		L183.267,487.793z M306.693,223.34l-129.511,12.39l-22.274-11.137l-18.489-9.39l129.512-12.394l22.222,11.109L306.693,223.34z" style="fill: rgb(75, 75, 75);"></path>
	<path class="st0" d="M182.416,216.89c-2.922,0-5.29,2.371-5.29,5.29c0,2.926,2.367,5.289,5.29,5.289
		c2.922,0,5.289-2.363,5.289-5.289C187.705,219.262,185.337,216.89,182.416,216.89z" style="fill: rgb(75, 75, 75);"></path>
	<path class="st0" d="M208.943,214.371c-2.918,0-5.29,2.371-5.29,5.289c0,2.926,2.371,5.29,5.29,5.29
		c2.922,0,5.293-2.364,5.293-5.29C214.236,216.742,211.865,214.371,208.943,214.371z" style="fill: rgb(75, 75, 75);"></path>
	<path class="st0" d="M235.474,211.855c-2.922,0-5.29,2.367-5.29,5.286c0,2.926,2.367,5.289,5.29,5.289
		c2.922,0,5.289-2.363,5.289-5.289C240.763,214.222,238.396,211.855,235.474,211.855z" style="fill: rgb(75, 75, 75);"></path>
	<path class="st0" d="M262.005,209.336c-2.922,0-5.289,2.371-5.289,5.289c0,2.918,2.367,5.286,5.289,5.286
		c2.918,0,5.289-2.367,5.289-5.286C267.294,211.707,264.923,209.336,262.005,209.336z" style="fill: rgb(75, 75, 75);"></path>
	<path class="st0" d="M417.595,86.66l-14.613-30.91c-1.895-4.008-6.699-5.731-10.711-3.836L221.24,132.762
		c-4.606,2.18-6.586,7.707-4.402,12.321l13.574,28.718c0.777,1.652,2.066,2.82,3.507,3.726h0.004
		c2.59,1.633,5.844,2.094,8.805,0.695l171.031-80.847C417.771,95.477,419.489,90.668,417.595,86.66z M245.713,163.722
		l-11.375-24.066L343.052,88.27l11.379,24.062l-108.59,51.328L245.713,163.722z M365.126,107.278l-11.375-24.066l40.153-18.981
		l11.379,24.066L365.126,107.278z" style="fill: rgb(75, 75, 75);"></path>
</g>
</svg>
