<!--?xml version="1.0" encoding="utf-8"?-->
<!-- Generator: Adobe Illustrator 19.1.1, SVG Export Plug-In . SVG Version: 6.00 Build 0)  -->
<svg version="1.1" id="_x31_0" xmlns="http://www.w3.org/2000/svg" xmlns:xlink="http://www.w3.org/1999/xlink" x="0px" y="0px" viewBox="0 0 512 512" style="width: 256px; height: 256px; opacity: 1;" xml:space="preserve">
<style type="text/css">
	.st0{fill:#374149;}
</style>
<g>
	<rect x="169.545" y="411.703" class="st0" width="172.914" height="12.301" style="fill: rgb(75, 75, 75);"></rect>
	<path class="st0" d="M377.983,113.942H134.018c-21.707,0-39.383,17.609-39.383,39.324v319.351
		c0,35.524,21.957,39.383,31.363,39.383h251.985c21.71,0,39.382-17.668,39.382-39.383V153.266
		C417.365,131.55,399.693,113.942,377.983,113.942z M214.896,148.562h82.149v40.286c0,10.918-8.867,19.785-19.723,19.785H234.74
		c-10.914,0-19.844-8.867-19.844-19.785V148.562z M128.108,168.946h73.039v10.855h-73.039V168.946z M374.846,469.418H137.154
		V360.801l118.875-75.875l118.817,75.93V469.418z M383.892,179.801h-73.035v-10.855h73.035V179.801z" style="fill: rgb(75, 75, 75);"></path>
	<path class="st0" d="M142.772,99.394h10.289h1.402h1.402V70.633h17.527v28.762h1.402h1.398h10.293h1.402h1.402V6.82
		c0-3.75-3.066-6.82-6.82-6.82h-35.687c-3.75,0-6.821,3.07-6.821,6.82v92.574h1.402H142.772z" style="fill: rgb(75, 75, 75);"></path>
</g>
</svg>
