<!--?xml version="1.0" encoding="utf-8"?-->
<!-- Generator: Adobe Illustrator 18.0.0, SVG Export Plug-In . SVG Version: 6.00 Build 0)  -->

<svg version="1.1" id="_x31_0" xmlns="http://www.w3.org/2000/svg" xmlns:xlink="http://www.w3.org/1999/xlink" x="0px" y="0px" viewBox="0 0 512 512" style="width: 256px; height: 256px; opacity: 1;" xml:space="preserve">
<style type="text/css">
	.st0{fill:#374149;}
</style>
<g>
	<path class="st0" d="M463.901,46.844c-16.871-13.176-35.094-18.481-53.477-18.481c-75.75,0-154.422,89.969-154.422,89.969
		s-78.68-89.961-154.426-89.969c-18.391-0.004-36.602,5.301-53.481,18.481C-133.087,188.34,255.991,483.629,256.003,483.637
		C256.01,483.629,645.089,188.34,463.901,46.844z M64.003,140.867c-0.078-12.418,2.648-27.309,23.484-43.582
		c4.539-3.542,8.485-4.922,14.086-4.922c31.406,0.004,82.038,40.714,106.258,68.102l48.176,55.086l48.175-55.09
		c20.762-23.746,73.242-68.098,106.242-68.098c5.602,0,9.55,1.379,14.086,4.922c20.836,16.27,23.566,31.16,23.489,43.578
		c-0.442,70.129-102.562,184.207-192.004,260.519C166.561,325.09,64.448,211.027,64.003,140.867z" style="fill: rgb(225, 86, 75);"></path>
</g>
</svg>
