<!--?xml version="1.0" encoding="utf-8"?-->
<!-- Generator: Adobe Illustrator 24.1.1, SVG Export Plug-In . SVG Version: 6.00 Build 0)  -->
<svg version="1.1" id="_x31_0" xmlns="http://www.w3.org/2000/svg" xmlns:xlink="http://www.w3.org/1999/xlink" x="0px" y="0px" viewBox="0 0 512 512" style="width: 256px; height: 256px; opacity: 1;" xml:space="preserve">
<style type="text/css">
	.st0{fill:#374149;}
</style>
<g>
	<path class="st0" d="M374.82,165.31l4.352,2.098l-0.434,0.598l-2.547,3.23c-10.617,13.531-14.488,26.406-12.164,40.511l0.246,1.402
		c2.742,13.906,11.706,26.336,23.394,32.454c7.442,4.121,15.836,5.996,23.722,5.32c4.566-0.378,10.715-2.465,12.59-4.949
		c0.535-0.719,0.528-1.238,0.438-1.692c-0.066-0.37-0.238-0.808-0.492-1.262c-1.16-2.129-5.914-3.195-9.738-4.058
		c-2.324-0.531-4.535-1.043-6.274-1.722c-7.171-2.828-13.234-7.266-17.515-12.844c-3.39-4.394-5.645-9.398-6.723-14.875
		c-1.812-9.214-0.058-18.687,4.934-26.699c4.047-6.496,9.634-10.805,14.555-14.598c3.504-2.699,4.805-5.207,4.554-6.488
		c-0.214-1.129-1.945-2.317-4.617-3.18l-2.09-0.668c-10.094-3.222-20.527-6.543-27.695-16.742
		c-2.874-4.082-4.808-8.625-5.777-13.503c-2.165-11.024,1.042-22.871,8.562-31.711c2.613-3.066,5.574-5.321,8.438-7.508
		c1.566-1.195,3.14-2.386,4.648-3.726c1.867-1.664,2.859-3.29,2.656-4.34c-0.312-1.602-3.886-3.641-8.773-3.149
		c-11.723,1.165-23.555,9.84-30.133,22.118c-5.168,9.621-6.766,20.469-4.626,31.371C351.285,145.794,361.191,158.731,374.82,165.31z
		" style="fill: rgb(75, 75, 75);"></path>
	<path class="st0" d="M506.453,124.415c-6.582-12.273-18.406-20.949-30.129-22.121c-4.89-0.481-8.461,1.55-8.774,3.16
		c-0.206,1.047,0.786,2.668,2.661,4.332c1.496,1.344,3.07,2.535,4.636,3.726c2.867,2.184,5.829,4.446,8.442,7.504
		c7.524,8.844,10.723,20.699,8.558,31.719c-0.961,4.871-2.894,9.418-5.769,13.5c-7.172,10.195-17.61,13.531-27.703,16.742
		l-2.086,0.671c-2.672,0.86-4.394,2.047-4.621,3.172c-0.25,1.29,1.062,3.797,4.566,6.496c4.914,3.786,10.504,8.098,14.554,14.598
		c4.989,8.012,6.738,17.485,4.93,26.696c-1.078,5.484-3.336,10.484-6.722,14.874c-4.282,5.578-10.344,10.016-17.523,12.848
		c-1.73,0.68-3.95,1.195-6.27,1.722c-3.821,0.86-8.578,1.918-9.742,4.047c-0.25,0.465-0.414,0.894-0.492,1.274
		c-0.082,0.453-0.098,0.969,0.442,1.687c1.878,2.481,8.027,4.57,12.59,4.953c7.886,0.672,16.281-1.202,23.726-5.332
		c11.687-6.105,20.649-18.535,23.383-32.449l0.25-1.394c2.328-14.11-1.539-26.985-12.164-40.516l-2.984-3.789l0.644-0.34
		l3.711-1.793c13.633-6.574,23.543-19.52,26.508-34.618C513.218,144.879,511.621,134.04,506.453,124.415z" style="fill: rgb(75, 75, 75);"></path>
	<path class="st0" d="M437.746,328.555c-1.949-13.972-4.949-26.019-8.102-33.633c-0.656-1.918-1.496-3.504-2.718-5.038
		c0,0-0.008-0.074-0.098-0.141l-0.012-0.074c-0.766-1.054-1.66-1.938-2.851-2.699l0.066-0.086
		c-3.387-2.625-7.914-4.003-12.469-3.366l-378.86,52.918l-20.332,2.84c-7.851,1.098-13.328,8.351-12.23,16.203l9.363,67.019
		c1.094,7.852,8.348,13.328,16.203,12.23l20.328-2.839l378.86-52.918c4.477-0.625,8.457-3.195,10.996-6.645
		c0.922-1.137,1.539-2.23,1.992-3.453c-0.011-0.078-0.011-0.078,0.055-0.164c-0.012-0.074,0.062-0.086,0.054-0.16
		c0.691-1.723,1.043-3.633,1.09-5.496l0.074-0.012c-0.023-0.153-0.039-0.305,0.027-0.39c-0.011-0.074-0.011-0.074-0.011-0.074
		C440.121,354.391,439.656,342.223,437.746,328.555z M151.242,330.939l10.305,73.774l-28.062,3.922l-10.305-73.778L151.242,330.939z
		 M167.086,403.939l-10.305-73.774l256.27-35.797l0.371,0.016c-1.293,2.851-2.293,6.918-2.234,11.507
		c0.11,7.027,2.114,11.504,2.485,16.637c0.297,4.207,1.234,9.954,1.886,14.649c0.852,6.082-0.926,6.301,0.262,11.394
		c1.11,4.871,4.047,8.774,5.305,12.266c1.012,2.82,2.11,5.18,3.199,6.942l-0.969,0.363L167.086,403.939z M425.992,303.391
		c0.172,0.59-0.164,1.207-0.742,1.379l-2.602,0.762c-0.586,0.168-1.195-0.176-1.367-0.766c-0.171-0.59,0.157-1.211,0.742-1.379
		l2.598-0.762C425.207,302.458,425.816,302.798,425.992,303.391z M421.578,312.384c0.118-0.641,0.731-1.066,1.364-0.954
		c0.64,0.118,1.066,0.726,0.949,1.367l-0.508,2.855c-0.113,0.637-0.726,1.066-1.367,0.95c-0.633-0.114-1.058-0.722-0.949-1.363
		L421.578,312.384z M422.289,331.177l2.496-0.726c0.555-0.165,1.149,0.183,1.321,0.777c0.168,0.59-0.141,1.203-0.695,1.363
		l-2.493,0.73c-0.554,0.161-1.152-0.187-1.324-0.777C421.422,331.951,421.734,331.341,422.289,331.177z M424.718,344.126
		c0.325-0.535,1.024-0.699,1.551-0.374l2.386,1.469c0.531,0.324,0.695,1.023,0.371,1.554c-0.328,0.531-1.027,0.699-1.554,0.371
		l-2.387-1.465C424.554,345.353,424.39,344.657,424.718,344.126z M431.836,335.708l-1.195,2.527c-0.27,0.562-0.95,0.805-1.512,0.535
		c-0.562-0.27-0.805-0.946-0.539-1.508l1.203-2.527c0.266-0.562,0.946-0.805,1.504-0.535
		C431.867,334.47,432.106,335.146,431.836,335.708z M427.656,323.868l-2.274,0.664c-0.507,0.149-1.062-0.211-1.234-0.801
		c-0.171-0.594,0.098-1.191,0.61-1.34l2.278-0.664c0.504-0.148,1.058,0.211,1.23,0.801
		C428.445,323.119,428.168,323.719,427.656,323.868z M431.637,356.204c-0.066,0.649-0.641,1.121-1.29,1.054
		c-0.644-0.062-1.121-0.64-1.054-1.289l0.289-2.898c0.062-0.649,0.637-1.121,1.286-1.054c0.656,0.062,1.125,0.64,1.062,1.289
		L431.637,356.204z" style="fill: rgb(75, 75, 75);"></path>
</g>
</svg>
